<svg width="800" height="600" xmlns="http://www.w3.org/2000/svg">
  <!-- Background -->
  <rect width="800" height="600" fill="#f8f9fa"/>
  
  <!-- Title -->
  <text x="400" y="30" text-anchor="middle" font-family="Arial, sans-serif" font-size="18" font-weight="bold" fill="#2c3e50">
    AMPEL360 BWBQ100 CENTER OF GRAVITY ENVELOPE
  </text>
  <text x="400" y="50" text-anchor="middle" font-family="Arial, sans-serif" font-size="12" fill="#7f8c8d">
    ATA 00-20-20-00-01 | All Variants | Certified Limits
  </text>
  
  <!-- Chart area -->
  <rect x="80" y="80" width="600" height="400" fill="white" stroke="#bdc3c7" stroke-width="2"/>
  
  <!-- Grid lines -->
  <!-- Vertical grid lines (CG positions) -->
  <g stroke="#ecf0f1" stroke-width="1">
    <line x1="130" y1="80" x2="130" y2="480"/>
    <line x1="180" y1="80" x2="180" y2="480"/>
    <line x1="230" y1="80" x2="230" y2="480"/>
    <line x1="280" y1="80" x2="280" y2="480"/>
    <line x1="330" y1="80" x2="330" y2="480"/>
    <line x1="380" y1="80" x2="380" y2="480"/>
    <line x1="430" y1="80" x2="430" y2="480"/>
    <line x1="480" y1="80" x2="480" y2="480"/>
    <line x1="530" y1="80" x2="530" y2="480"/>
    <line x1="580" y1="80" x2="580" y2="480"/>
    <line x1="630" y1="80" x2="630" y2="480"/>
  </g>
  
  <!-- Horizontal grid lines (Weight) -->
  <g stroke="#ecf0f1" stroke-width="1">
    <line x1="80" y1="120" x2="680" y2="120"/>
    <line x1="80" y1="160" x2="680" y2="160"/>
    <line x1="80" y1="200" x2="680" y2="200"/>
    <line x1="80" y1="240" x2="680" y2="240"/>
    <line x1="80" y1="280" x2="680" y2="280"/>
    <line x1="80" y1="320" x2="680" y2="320"/>
    <line x1="80" y1="360" x2="680" y2="360"/>
    <line x1="80" y1="400" x2="680" y2="400"/>
    <line x1="80" y1="440" x2="680" y2="440"/>
  </g>
  
  <!-- Prohibited zones (Red) -->
  <!-- Forward of limit -->
  <polygon points="80,80 180,80 180,480 80,480" fill="#e74c3c" fill-opacity="0.3"/>
  <!-- Aft of limit -->
  <polygon points="580,80 680,80 680,480 580,480" fill="#e74c3c" fill-opacity="0.3"/>
  
  <!-- Caution zones (Yellow) -->
  <!-- Forward caution -->
  <polygon points="180,80 230,80 230,480 180,480" fill="#f39c12" fill-opacity="0.3"/>
  <!-- Aft caution -->
  <polygon points="530,80 580,80 580,480 530,480" fill="#f39c12" fill-opacity="0.3"/>
  
  <!-- Normal operating envelope (Green) -->
  <polygon points="230,80 530,80 530,480 230,480" fill="#27ae60" fill-opacity="0.2"/>
  
  <!-- CG Envelope boundaries -->
  <!-- Base/Cargo/QC envelope -->
  <polygon points="180,400 180,200 530,200 530,400" fill="none" stroke="#2980b9" stroke-width="3"/>
  
  <!-- Extended Range envelope -->
  <polygon points="200,360 200,160 550,160 550,360" fill="none" stroke="#8e44ad" stroke-width="3" stroke-dasharray="5,5"/>
  
  <!-- Critical operating points -->
  <!-- MTOW Base -->
  <circle cx="330" cy="200" r="4" fill="#2980b9"/>
  <text x="340" y="195" font-family="Arial, sans-serif" font-size="10" fill="#2980b9">MTOW Base</text>
  
  <!-- MTOW ER -->
  <circle cx="350" cy="160" r="4" fill="#8e44ad"/>
  <text x="360" y="155" font-family="Arial, sans-serif" font-size="10" fill="#8e44ad">MTOW ER</text>
  
  <!-- MLW -->
  <circle cx="320" cy="240" r="4" fill="#e67e22"/>
  <text x="330" y="235" font-family="Arial, sans-serif" font-size="10" fill="#e67e22">MLW</text>
  
  <!-- MZFW -->
  <circle cx="310" cy="280" r="4" fill="#16a085"/>
  <text x="320" y="275" font-family="Arial, sans-serif" font-size="10" fill="#16a085">MZFW</text>
  
  <!-- OEW -->
  <circle cx="300" cy="400" r="4" fill="#34495e"/>
  <text x="310" y="395" font-family="Arial, sans-serif" font-size="10" fill="#34495e">OEW</text>
  
  <!-- Forward CG Critical -->
  <circle cx="200" cy="300" r="4" fill="#c0392b"/>
  <text x="80" y="295" font-family="Arial, sans-serif" font-size="10" fill="#c0392b">Forward Critical</text>
  <text x="80" y="305" font-family="Arial, sans-serif" font-size="10" fill="#c0392b">(Max Fuel + Fwd Load)</text>
  
  <!-- Aft CG Critical -->
  <circle cx="520" cy="350" r="4" fill="#c0392b"/>
  <text x="540" y="345" font-family="Arial, sans-serif" font-size="10" fill="#c0392b">Aft Critical</text>
  <text x="540" y="355" font-family="Arial, sans-serif" font-size="10" fill="#c0392b">(Min Fuel + Aft Load)</text>
  
  <!-- Axes -->
  <!-- Y-axis -->
  <line x1="80" y1="80" x2="80" y2="480" stroke="#2c3e50" stroke-width="2"/>
  <polygon points="80,80 75,90 85,90" fill="#2c3e50"/>
  
  <!-- X-axis -->
  <line x1="80" y1="480" x2="680" y2="480" stroke="#2c3e50" stroke-width="2"/>
  <polygon points="680,480 670,475 670,485" fill="#2c3e50"/>
  
  <!-- Y-axis labels (Weight) -->
  <text x="70" y="85" text-anchor="end" font-family="Arial, sans-serif" font-size="10" fill="#2c3e50">220</text>
  <text x="70" y="125" text-anchor="end" font-family="Arial, sans-serif" font-size="10" fill="#2c3e50">200</text>
  <text x="70" y="165" text-anchor="end" font-family="Arial, sans-serif" font-size="10" fill="#2c3e50">180</text>
  <text x="70" y="205" text-anchor="end" font-family="Arial, sans-serif" font-size="10" fill="#2c3e50">160</text>
  <text x="70" y="245" text-anchor="end" font-family="Arial, sans-serif" font-size="10" fill="#2c3e50">140</text>
  <text x="70" y="285" text-anchor="end" font-family="Arial, sans-serif" font-size="10" fill="#2c3e50">120</text>
  <text x="70" y="325" text-anchor="end" font-family="Arial, sans-serif" font-size="10" fill="#2c3e50">100</text>
  <text x="70" y="365" text-anchor="end" font-family="Arial, sans-serif" font-size="10" fill="#2c3e50">80</text>
  <text x="70" y="405" text-anchor="end" font-family="Arial, sans-serif" font-size="10" fill="#2c3e50">60</text>
  <text x="70" y="445" text-anchor="end" font-family="Arial, sans-serif" font-size="10" fill="#2c3e50">40</text>
  <text x="70" y="485" text-anchor="end" font-family="Arial, sans-serif" font-size="10" fill="#2c3e50">20</text>
  
  <!-- X-axis labels (CG Position % MAC) -->
  <text x="80" y="500" text-anchor="middle" font-family="Arial, sans-serif" font-size="10" fill="#2c3e50">42</text>
  <text x="130" y="500" text-anchor="middle" font-family="Arial, sans-serif" font-size="10" fill="#2c3e50">44</text>
  <text x="180" y="500" text-anchor="middle" font-family="Arial, sans-serif" font-size="10" fill="#2c3e50">46</text>
  <text x="230" y="500" text-anchor="middle" font-family="Arial, sans-serif" font-size="10" fill="#2c3e50">48</text>
  <text x="280" y="500" text-anchor="middle" font-family="Arial, sans-serif" font-size="10" fill="#2c3e50">50</text>
  <text x="330" y="500" text-anchor="middle" font-family="Arial, sans-serif" font-size="10" fill="#2c3e50">52</text>
  <text x="380" y="500" text-anchor="middle" font-family="Arial, sans-serif" font-size="10" fill="#2c3e50">54</text>
  <text x="430" y="500" text-anchor="middle" font-family="Arial, sans-serif" font-size="10" fill="#2c3e50">56</text>
  <text x="480" y="500" text-anchor="middle" font-family="Arial, sans-serif" font-size="10" fill="#2c3e50">58</text>
  <text x="530" y="500" text-anchor="middle" font-family="Arial, sans-serif" font-size="10" fill="#2c3e50">60</text>
  <text x="580" y="500" text-anchor="middle" font-family="Arial, sans-serif" font-size="10" fill="#2c3e50">62</text>
  <text x="630" y="500" text-anchor="middle" font-family="Arial, sans-serif" font-size="10" fill="#2c3e50">64</text>
  <text x="680" y="500" text-anchor="middle" font-family="Arial, sans-serif" font-size="10" fill="#2c3e50">66</text>
  
  <!-- Axis titles -->
  <text x="400" y="530" text-anchor="middle" font-family="Arial, sans-serif" font-size="12" font-weight="bold" fill="#2c3e50">
    CENTER OF GRAVITY POSITION (% MAC)
  </text>
  
  <text x="30" y="280" text-anchor="middle" font-family="Arial, sans-serif" font-size="12" font-weight="bold" fill="#2c3e50" transform="rotate(-90, 30, 280)">
    AIRCRAFT WEIGHT (1000 kg)
  </text>
  
  <!-- Legend -->
  <rect x="500" y="100" width="160" height="120" fill="white" stroke="#bdc3c7" stroke-width="1"/>
  <text x="580" y="115" text-anchor="middle" font-family="Arial, sans-serif" font-size="12" font-weight="bold" fill="#2c3e50">LEGEND</text>
  
  <!-- Legend items -->
  <rect x="510" y="125" width="15" height="10" fill="#e74c3c" fill-opacity="0.3"/>
  <text x="530" y="133" font-family="Arial, sans-serif" font-size="10" fill="#2c3e50">Prohibited</text>
  
  <rect x="510" y="140" width="15" height="10" fill="#f39c12" fill-opacity="0.3"/>
  <text x="530" y="148" font-family="Arial, sans-serif" font-size="10" fill="#2c3e50">Caution</text>
  
  <rect x="510" y="155" width="15" height="10" fill="#27ae60" fill-opacity="0.2"/>
  <text x="530" y="163" font-family="Arial, sans-serif" font-size="10" fill="#2c3e50">Normal</text>
  
  <line x1="510" y1="175" x2="525" y2="175" stroke="#2980b9" stroke-width="3"/>
  <text x="530" y="178" font-family="Arial, sans-serif" font-size="10" fill="#2c3e50">Base/Cargo/QC</text>
  
  <line x1="510" y1="190" x2="525" y2="190" stroke="#8e44ad" stroke-width="3" stroke-dasharray="3,3"/>
  <text x="530" y="193" font-family="Arial, sans-serif" font-size="10" fill="#2c3e50">Extended Range</text>
  
  <circle cx="517" cy="205" r="3" fill="#2c3e50"/>
  <text x="530" y="208" font-family="Arial, sans-serif" font-size="10" fill="#2c3e50">Operating Points</text>
  
  <!-- MAC Reference -->
  <text x="400" y="570" text-anchor="middle" font-family="Arial, sans-serif" font-size="10" fill="#7f8c8d">
    MAC: 14.5m | MAC LE: 16.8m from nose | BWB Configuration
  </text>
  
  <!-- Certification info -->
  <text x="80" y="570" font-family="Arial, sans-serif" font-size="10" fill="#7f8c8d">
    GAIA-QAO-ADVENT | Certified Limits | Rev 2.0.0
  </text>
  
  <!-- Quantum sensor integration note -->
  <text x="680" y="570" text-anchor="end" font-family="Arial, sans-serif" font-size="10" fill="#7f8c8d">
    Quantum Sensor Integration: Planned
  </text>
  
  <!-- Critical limit lines -->
  <!-- Forward limit -->
  <line x1="180" y1="80" x2="180" y2="480" stroke="#c0392b" stroke-width="2"/>
  <text x="185" y="95" font-family="Arial, sans-serif" font-size="10" font-weight="bold" fill="#c0392b">FWD LIMIT</text>
  <text x="185" y="105" font-family="Arial, sans-serif" font-size="10" fill="#c0392b">45.0% MAC</text>
  
  <!-- Aft limit -->
  <line x1="530" y1="80" x2="530" y2="480" stroke="#c0392b" stroke-width="2"/>
  <text x="535" y="95" font-family="Arial, sans-serif" font-size="10" font-weight="bold" fill="#c0392b">AFT LIMIT</text>
  <text x="535" y="105" font-family="Arial, sans-serif" font-size="10" fill="#c0392b">52.0% MAC</text>
  
  <!-- ER Forward limit -->
  <line x1="200" y1="80" x2="200" y2="480" stroke="#8e44ad" stroke-width="2" stroke-dasharray="5,5"/>
  <text x="205" y="125" font-family="Arial, sans-serif" font-size="10" font-weight="bold" fill="#8e44ad">ER FWD</text>
  <text x="205" y="135" font-family="Arial, sans-serif" font-size="10" fill="#8e44ad">45.5% MAC</text>
  
  <!-- ER Aft limit -->
  <line x1="550" y1="80" x2="550" y2="480" stroke="#8e44ad" stroke-width="2" stroke-dasharray="5,5"/>
  <text x="555" y="125" font-family="Arial, sans-serif" font-size="10" font-weight="bold" fill="#8e44ad">ER AFT</text>
  <text x="555" y="135" font-family="Arial, sans-serif" font-size="10" fill="#8e44ad">53.0% MAC</text>
  
  <!-- Operating envelope annotations -->
  <text x="380" y="340" font-family="Arial, sans-serif" font-size="12" font-weight="bold" fill="#27ae60">
    NORMAL OPERATING
  </text>
  <text x="380" y="355" font-family="Arial, sans-serif" font-size="12" font-weight="bold" fill="#27ae60">
    ENVELOPE
  </text>
  
  <!-- BWB advantage note -->
  <rect x="80" y="40" width="200" height="30" fill="#ecf0f1" stroke="#bdc3c7" stroke-width="1"/>
  <text x="180" y="52" text-anchor="middle" font-family="Arial, sans-serif" font-size="10" font-weight="bold" fill="#2c3e50">BWB ADVANTAGE</text>
  <text x="180" y="62" text-anchor="middle" font-family="Arial, sans-serif" font-size="9" fill="#2c3e50">Wide CG envelope vs conventional</text>
</svg>
